<svg width="169" height="50" viewBox="0 0 169 50" fill="none" xmlns="http://www.w3.org/2000/svg">
<rect x="0.44" y="0.44" width="168.12" height="49.12" rx="6.56" fill="#0C0D10"/>
<path d="M114.815 24.001V26.8647H112.792V28.7428H114.815V35.124C114.815 37.303 115.925 38.1745 118.719 38.1745C119.21 38.1745 119.678 38.1227 120.087 38.0604V36.2031C119.736 36.2342 119.514 36.255 119.128 36.255C117.878 36.255 117.328 35.7362 117.328 34.5533V28.7428H120.087V26.8647H117.328V24.001H114.815Z" fill="white"/>
<path d="M127.205 38.3302C130.922 38.3302 133.202 36.1201 133.202 32.4574C133.202 28.8154 130.91 26.5949 127.205 26.5949C123.487 26.5949 121.196 28.8154 121.196 32.4574C121.196 36.1201 123.475 38.3302 127.205 38.3302ZM127.205 36.3484C125.019 36.3484 123.791 34.9269 123.791 32.4574C123.791 30.0086 125.019 28.5768 127.205 28.5768C129.379 28.5768 130.618 30.0086 130.618 32.4574C130.618 34.9165 129.379 36.3484 127.205 36.3484Z" fill="white"/>
<path d="M135.152 38.1123H137.666V31.4405C137.666 29.853 139.01 28.7843 140.915 28.7843C141.36 28.7843 142.108 28.8569 142.318 28.9192V26.7195C142.049 26.6572 141.57 26.6261 141.196 26.6261C139.536 26.6261 138.121 27.4354 137.759 28.5456H137.572V26.8128H135.152V38.1123Z" fill="white"/>
<path d="M148.559 28.4938C150.418 28.4938 151.633 29.6455 151.692 31.4198H145.262C145.403 29.6559 146.7 28.4938 148.559 28.4938ZM151.68 35.0617C151.213 35.9437 150.172 36.4314 148.652 36.4314C146.642 36.4314 145.344 35.1759 145.262 33.1941V33.0696H154.252V32.2914C154.252 28.7428 152.113 26.5949 148.571 26.5949C144.982 26.5949 142.702 28.888 142.702 32.4989C142.702 36.1097 144.935 38.3302 148.582 38.3302C151.493 38.3302 153.527 37.0851 154.1 35.0617H151.68Z" fill="white"/>
<path d="M98.3322 33.9396C98.5261 36.7142 101.131 38.4887 105.008 38.4887C109.152 38.4887 111.745 36.6282 111.745 33.66C111.745 31.3263 110.267 30.0357 106.681 29.2937L104.754 28.8743C102.476 28.4011 101.555 27.7666 101.555 26.6589C101.555 25.2608 102.985 24.3467 105.13 24.3467C107.165 24.3467 108.571 25.2393 108.825 26.6696H111.467C111.309 24.0563 108.716 22.2173 105.166 22.2173C101.349 22.2173 98.8048 24.0563 98.8048 26.8202C98.8048 29.1001 100.247 30.4552 103.409 31.1112L105.663 31.5951C107.977 32.0791 108.995 32.7889 108.995 33.9718C108.995 35.3484 107.395 36.3486 105.214 36.3486C102.876 36.3486 101.252 35.4129 101.022 33.9396H98.3322Z" fill="white"/>
<path d="M72.2959 26.6261C70.5657 26.6261 69.0694 27.3939 68.2978 28.6805H68.1108V26.8128H65.6909V41.8684H68.2043V36.4002H68.403C69.0694 37.5935 70.5073 38.299 72.3193 38.299C75.5341 38.299 77.5799 36.0475 77.5799 32.4574C77.5799 28.8673 75.5341 26.6261 72.2959 26.6261ZM71.5828 36.2965C69.4785 36.2965 68.1575 34.8231 68.1575 32.4677C68.1575 30.102 69.4785 28.6286 71.5945 28.6286C73.7221 28.6286 74.9963 30.0709 74.9963 32.4574C74.9963 34.8542 73.7221 36.2965 71.5828 36.2965Z" fill="white"/>
<path d="M86.3747 26.6261C84.6446 26.6261 83.1482 27.3939 82.3766 28.6805H82.1896V26.8128H79.7697V41.8684H82.2831V36.4002H82.4818C83.1482 37.5935 84.5861 38.299 86.3981 38.299C89.6129 38.299 91.6587 36.0475 91.6587 32.4574C91.6587 28.8673 89.6129 26.6261 86.3747 26.6261ZM85.6616 36.2965C83.5574 36.2965 82.2364 34.8231 82.2364 32.4677C82.2364 30.102 83.5574 28.6286 85.6733 28.6286C87.8009 28.6286 89.0752 30.0709 89.0752 32.4574C89.0752 34.8542 87.8009 36.2965 85.6616 36.2965Z" fill="white"/>
<path d="M61.1814 38.1123H64.0652L57.7524 22.5937H54.8323L48.5195 38.1123H51.3064L52.9179 33.9933H59.582L61.1814 38.1123ZM56.153 25.4113H56.359L58.8914 31.9715H53.6085L56.153 25.4113Z" fill="white"/>
<path d="M50.207 10.8889V18.3751H53.2523C55.7658 18.3751 57.2212 17.0003 57.2212 14.6086C57.2212 12.2533 55.7541 10.8889 53.2523 10.8889H50.207ZM51.5163 11.9472H53.1062C54.8539 11.9472 55.8885 12.9329 55.8885 14.6242C55.8885 16.3414 54.8714 17.3168 53.1062 17.3168H51.5163V11.9472Z" fill="white"/>
<path d="M61.6787 18.4841C63.5374 18.4841 64.6772 17.379 64.6772 15.5477C64.6772 13.7267 63.5316 12.6165 61.6787 12.6165C59.8199 12.6165 58.6743 13.7267 58.6743 15.5477C58.6743 17.379 59.8141 18.4841 61.6787 18.4841ZM61.6787 17.4932C60.5857 17.4932 59.9719 16.7824 59.9719 15.5477C59.9719 14.3233 60.5857 13.6074 61.6787 13.6074C62.7659 13.6074 63.3855 14.3233 63.3855 15.5477C63.3855 16.7772 62.7659 17.4932 61.6787 17.4932Z" fill="white"/>
<path d="M74.3837 12.7254H73.127L71.993 17.0366H71.8936L70.5843 12.7254H69.3802L68.0709 17.0366H67.9774L66.8376 12.7254H65.5634L67.3169 18.3751H68.6087L69.918 14.2144H70.0174L71.3325 18.3751H72.636L74.3837 12.7254Z" fill="white"/>
<path d="M75.8309 18.3751H77.0876V15.0704C77.0876 14.1884 77.678 13.6385 78.6074 13.6385C79.5367 13.6385 79.981 14.0898 79.981 14.9977V18.3751H81.2377V14.7176C81.2377 13.3739 80.4544 12.6165 79.0341 12.6165C78.0755 12.6165 77.4442 12.9952 77.1344 13.6229H77.0409V12.7254H75.8309V18.3751Z" fill="white"/>
<path d="M83.2168 18.3751H84.4735V10.5205H83.2168V18.3751Z" fill="white"/>
<path d="M89.1999 18.4841C91.0587 18.4841 92.1985 17.379 92.1985 15.5477C92.1985 13.7267 91.0528 12.6165 89.1999 12.6165C87.3412 12.6165 86.1955 13.7267 86.1955 15.5477C86.1955 17.379 87.3353 18.4841 89.1999 18.4841ZM89.1999 17.4932C88.1069 17.4932 87.4931 16.7824 87.4931 15.5477C87.4931 14.3233 88.1069 13.6074 89.1999 13.6074C90.2871 13.6074 90.9067 14.3233 90.9067 15.5477C90.9067 16.7772 90.2871 17.4932 89.1999 17.4932Z" fill="white"/>
<path d="M95.9429 17.5295C95.259 17.5295 94.7621 17.2338 94.7621 16.7253C94.7621 16.2273 95.1596 15.9627 96.0364 15.9108L97.5912 15.8226V16.2947C97.5912 16.9951 96.8898 17.5295 95.9429 17.5295ZM95.6214 18.4685C96.4572 18.4685 97.1528 18.1469 97.5327 17.5814H97.6321V18.3751H98.842V14.5153C98.842 13.322 97.9419 12.6165 96.3462 12.6165C94.9024 12.6165 93.8737 13.239 93.7451 14.2092H94.9609C95.1012 13.8097 95.5863 13.5814 96.2877 13.5814C97.147 13.5814 97.5912 13.9186 97.5912 14.5153V15.0029L95.8669 15.0911C94.353 15.1741 93.4996 15.7604 93.4996 16.7772C93.4996 17.8096 94.3939 18.4685 95.6214 18.4685Z" fill="white"/>
<path d="M103.107 18.4685C103.983 18.4685 104.726 18.1002 105.106 17.4828H105.205V18.3751H106.409V10.5205H105.152V13.6229H105.059C104.714 13.0004 103.978 12.632 103.107 12.632C101.499 12.632 100.465 13.763 100.465 15.5477C100.465 17.3375 101.488 18.4685 103.107 18.4685ZM103.463 13.6333C104.515 13.6333 105.176 14.3752 105.176 15.5529C105.176 16.7357 104.521 17.4672 103.463 17.4672C102.399 17.4672 101.762 16.7461 101.762 15.5477C101.762 14.3596 102.405 13.6333 103.463 13.6333Z" fill="white"/>
<path d="M114.558 18.4841C116.417 18.4841 117.557 17.379 117.557 15.5477C117.557 13.7267 116.411 12.6165 114.558 12.6165C112.7 12.6165 111.554 13.7267 111.554 15.5477C111.554 17.379 112.694 18.4841 114.558 18.4841ZM114.558 17.4932C113.465 17.4932 112.852 16.7824 112.852 15.5477C112.852 14.3233 113.465 13.6074 114.558 13.6074C115.646 13.6074 116.265 14.3233 116.265 15.5477C116.265 16.7772 115.646 17.4932 114.558 17.4932Z" fill="white"/>
<path d="M119.221 18.3751H120.477V15.0704C120.477 14.1884 121.068 13.6385 121.997 13.6385C122.926 13.6385 123.371 14.0898 123.371 14.9977V18.3751H124.627V14.7176C124.627 13.3739 123.844 12.6165 122.424 12.6165C121.465 12.6165 120.834 12.9952 120.524 13.6229H120.43V12.7254H119.221V18.3751Z" fill="white"/>
<path d="M130.415 11.3195V12.7513H129.404V13.6904H130.415V16.881C130.415 17.9705 130.97 18.4062 132.367 18.4062C132.613 18.4062 132.847 18.3803 133.051 18.3492V17.4205C132.876 17.4361 132.765 17.4465 132.572 17.4465C131.947 17.4465 131.672 17.1871 131.672 16.5956V13.6904H133.051V12.7513H131.672V11.3195H130.415Z" fill="white"/>
<path d="M134.738 18.3751H135.995V15.0756C135.995 14.2195 136.568 13.6437 137.596 13.6437C138.485 13.6437 138.958 14.1002 138.958 15.0029V18.3751H140.215V14.728C140.215 13.3843 139.379 12.6216 138.023 12.6216C137.065 12.6216 136.392 13.0004 136.083 13.6333H135.983V10.5205H134.738V18.3751Z" fill="white"/>
<path d="M144.749 13.5659C145.678 13.5659 146.286 14.1417 146.315 15.0289H143.1C143.17 14.1469 143.819 13.5659 144.749 13.5659ZM146.309 16.8499C146.075 17.2908 145.555 17.5347 144.795 17.5347C143.79 17.5347 143.141 16.9069 143.1 15.916V15.8538H147.595V15.4647C147.595 13.6904 146.525 12.6165 144.754 12.6165C142.96 12.6165 141.82 13.763 141.82 15.5684C141.82 17.3738 142.937 18.4841 144.76 18.4841C146.216 18.4841 147.233 17.8615 147.519 16.8499H146.309Z" fill="white"/>
<path d="M34.8825 25.3758C34.913 23.2746 36.1844 21.2863 38.2013 20.1858C36.9289 18.5729 34.7977 17.5502 32.5805 17.4887C30.2155 17.2683 27.9228 18.7447 26.7177 18.7447C25.4893 18.7447 23.6338 17.5105 21.6357 17.547C19.0314 17.6217 16.6034 18.9359 15.3364 20.9569C12.6127 25.1424 14.6443 31.2937 17.2534 34.677C18.5588 36.3337 20.0844 38.1842 22.0806 38.1186C24.0341 38.0467 24.7637 37.013 27.1216 37.013C29.4577 37.013 30.1422 38.1186 32.179 38.0769C34.2751 38.0467 35.5958 36.4128 36.8553 34.7404C37.7933 33.56 38.515 32.2553 38.9938 30.8748C36.5304 29.9501 34.8854 27.7498 34.8825 25.3758Z" fill="white"/>
<path d="M31.0354 15.2637C32.1783 14.0459 32.7414 12.4807 32.605 10.9004C30.8589 11.0632 29.246 11.8039 28.0877 12.9749C26.955 14.1191 26.3655 15.6568 26.477 17.1766C28.2237 17.1926 29.9409 16.472 31.0354 15.2637Z" fill="white"/>
<rect x="0.44" y="0.44" width="168.12" height="49.12" rx="6.56" stroke="#A6A6A6" stroke-width="0.88"/>
</svg>
