<?xml version="1.0" encoding="UTF-8"?>
<svg version="1.1" xmlns="http://www.w3.org/2000/svg" width="256" height="256">
<path d="M0 0 C2.94581656 2.33055108 5.85061546 4.69640716 8.72265625 7.1171875 C11.05337046 9.1097247 11.05337046 9.1097247 14 11 C14.20625 10.4225 14.4125 9.845 14.625 9.25 C16.62010184 5.98528791 18.59028722 4.73585378 22 3 C26.98052627 2.09444977 31.93063318 2.4571232 36.26171875 5.3046875 C40.48834929 9.42683954 43.11832796 14.90045572 46 20 C47.18125375 22.06299295 48.36953547 24.12119715 49.57080078 26.17260742 C50.34298474 27.49203479 51.10482771 28.81758182 51.85498047 30.1496582 C53.37265438 32.75401441 54.65405261 34.75479553 57.1328125 36.51171875 C57.74898437 36.67285156 58.36515625 36.83398438 59 37 C59.70125 36.54625 60.4025 36.0925 61.125 35.625 C64.82474241 33.53384125 67.52830337 33.80220228 71.6953125 33.9921875 C74.16263807 34.12325498 74.16263807 34.12325498 77 33 C76.54842977 37.85437999 75.40802387 40.49174013 72 44 C65.00586915 46.33137695 57.60566383 45.03363558 51 42 C46.33718523 38.61599083 43.41509658 35.13790401 40.4375 30.25 C40.05037842 29.63745361 39.66325684 29.02490723 39.2644043 28.39379883 C37.082953 24.90704915 35.14582162 21.37188507 33.3125 17.6875 C31.62662565 14.55492379 31.35067872 14.14027149 27.875 12.75 C25.05482447 12.80063598 25.05482447 12.80063598 23.0625 14.0625 C21.81533898 16.01723391 21.81533898 16.01723391 21.8125 18.625 C23.26979552 22.76678726 25.41517659 24.86167639 28.38671875 28.0390625 C40.07425396 41.2814417 49.58007535 56.58613087 59.23046875 71.32519531 C60.40260296 73.09698096 61.59260159 74.857087 62.80078125 76.60449219 C63.35121094 77.40274414 63.90164062 78.20099609 64.46875 79.0234375 C64.95794922 79.72130371 65.44714844 80.41916992 65.95117188 81.13818359 C67 83 67 83 67 86 C63.40845069 86.87396409 60.57643019 87.01401656 57 86 C53.12750389 82.22768866 50.48332739 77.70884225 47.6875 73.125 C46.86067445 71.83061639 46.02982964 70.53879177 45.19506836 69.24951172 C43.53897447 66.68752703 41.89724761 64.11731198 40.26660156 61.5390625 C37.35235525 56.95695649 34.25440911 52.51750836 31.0625 48.125 C30.55146729 47.41956055 30.04043457 46.71412109 29.51391602 45.98730469 C24.37946517 39.00042128 18.74650766 32.48498058 13 26 C12.34386719 25.22140625 11.68773437 24.4428125 11.01171875 23.640625 C-3.56147249 6.35380505 -24.67303522 -6.20059293 -47.3984375 -8.31640625 C-64.33276066 -8.90625346 -79.97438768 -2.94701846 -92.375 8.5 C-94.27887406 10.30738981 -96.14047286 12.14593402 -98 14 C-98.70253906 14.69996094 -99.40507813 15.39992187 -100.12890625 16.12109375 C-101.27361393 17.27074617 -102.41129594 18.42747434 -103.5390625 19.59375 C-105 21 -105 21 -107.8125 22.9375 C-110.93010258 25.87695386 -111.35469925 28.92771374 -112 33 C-112.18433594 34.10601562 -112.36867187 35.21203125 -112.55859375 36.3515625 C-113.53231145 42.62364753 -114.25382829 48.65429285 -114 55 C-112.23566634 55.86758124 -112.23566634 55.86758124 -110 56 C-107.7861996 54.3544529 -107.7861996 54.3544529 -105.625 52 C-95.84391696 42.68468282 -84.53034915 38.34874712 -71.078125 38.66796875 C-55.14487201 39.58371626 -40.67236549 50.87313314 -30 62 C-23.75356545 69.21195113 -18.06757313 76.91754159 -13 85 C-14.60527481 86.60527481 -16.21672675 86.59090732 -18.4375 86.875 C-22.36338316 86.83607481 -23.62211674 86.37970585 -26.4296875 83.55859375 C-28.13196967 81.33358281 -29.71212299 79.02552655 -31.3125 76.7265625 C-39.66412009 64.79122483 -51.30242494 55.11141128 -65 50 C-64.896875 50.94875 -64.79375 51.8975 -64.6875 52.875 C-64.67258072 60.21528464 -69.49361496 66.58848634 -74 72 C-73.02546875 73.26457031 -73.02546875 73.26457031 -72.03125 74.5546875 C-71.18724883 75.66126681 -70.34351251 76.76804815 -69.5 77.875 C-68.85611328 78.70837891 -68.85611328 78.70837891 -68.19921875 79.55859375 C-65 83.7734375 -65 83.7734375 -65 86 C-68.96325504 86.96589968 -72.06030334 87.14988683 -76 86 C-79.55586479 82.92127647 -82.13166416 79.00912361 -84.78515625 75.16015625 C-86.63862361 71.98244959 -86.63862361 71.98244959 -89 71 C-89 70.34 -89 69.68 -89 69 C-87.171875 67.703125 -87.171875 67.703125 -84.75 66.25 C-78.97211527 62.48575798 -76.29944879 58.86035901 -74.75 52.125 C-74.48725399 50.75237859 -74.23273355 49.37802761 -74 48 C-86.04641956 50.35960795 -94.23308257 54.92444346 -103.08984375 63.36328125 C-106.74002627 66.49094275 -110.37823457 66.31874244 -115 66 C-119.13663835 64.17218305 -121.49048733 61.73035667 -124 58 C-125.32774195 49.08837608 -123.63355312 39.780348 -122 31 C-122.52207031 31.2165625 -123.04414062 31.433125 -123.58203125 31.65625 C-130.58413453 34.30503163 -137.36617193 35.48063145 -144.640625 33.15625 C-150.93875343 30.29697697 -155.44005587 26.13312146 -160 21 C-159.67 20.01 -159.34 19.02 -159 18 C-158.4328125 18.46019531 -157.865625 18.92039063 -157.28125 19.39453125 C-150.28651313 24.3171971 -141.27773176 24.94602649 -133 24 C-121.16689393 21.24659028 -112.19500657 14.68419793 -104.41796875 5.61328125 C-75.85650483 -25.25524761 -32.42854705 -24.16844544 0 0 Z " fill="#F3F3F3" transform="translate(170,89)"/>
<path d="M0 0 C2.4609375 0.88671875 2.4609375 0.88671875 3.796875 2.7421875 C4.13976562 3.51175781 4.48265625 4.28132813 4.8359375 5.07421875 C7.65413847 10.63972256 11.20176774 14.16958252 16.71484375 17.07421875 C21.34489146 18.44413329 26.01336756 17.534064 30.76953125 17.078125 C34.88633834 17.97990179 35.18392538 18.27742328 37.41015625 21.578125 C38.44221261 23.33887518 39.45747367 25.10951817 40.4609375 26.88671875 C41.81604685 29.04469379 43.1784776 31.19808276 44.546875 33.34765625 C45.61827534 35.06583467 46.68432117 36.78724351 47.74951172 38.50927734 C48.48159093 39.69014579 49.21668352 40.86915075 49.95458984 42.04638672 C51.03352989 43.76785759 52.10365155 45.49452057 53.171875 47.22265625 C54.12006104 48.74705322 54.12006104 48.74705322 55.08740234 50.30224609 C56.4609375 52.88671875 56.4609375 52.88671875 56.4609375 55.88671875 C52.89912556 56.66767764 50.00168554 56.84634302 46.4609375 55.88671875 C42.97983651 52.40178142 40.7679368 48.30263115 38.3984375 44.01171875 C37.40553711 42.31982422 37.40553711 42.31982422 36.39257812 40.59375 C34.33356822 37.06703561 32.28768415 33.54021206 30.4609375 29.88671875 C27.95492185 29.37059886 25.48790656 28.95150927 22.9609375 28.57421875 C11.97501168 26.69511108 4.71138248 22.51576947 -2.5390625 13.88671875 C-5.15449362 9.80010763 -6.20208455 6.74888044 -5.5390625 1.88671875 C-2.5390625 -0.11328125 -2.5390625 -0.11328125 0 0 Z " fill="#F4F4F4" transform="translate(145.5390625,119.11328125)"/>
<path d="M0 0 C0.66 0.33 1.32 0.66 2 1 C-1.33333333 4.33333333 -4.66666667 7.66666667 -8 11 C-8.66 11 -9.32 11 -10 11 C-8.55218207 7.55571735 -6.72305391 5.63869038 -3.875 3.25 C-3.15054688 2.63640625 -2.42609375 2.0228125 -1.6796875 1.390625 C-0.84824219 0.70226562 -0.84824219 0.70226562 0 0 Z " fill="#D5D5D5" transform="translate(70,136)"/>
<path d="M0 0 C0.66 0.33 1.32 0.66 2 1 C1.071875 1.8971875 1.071875 1.8971875 0.125 2.8125 C-2.13676954 5.00811144 -2.13676954 5.00811144 -4 8 C-6.5 9.75 -6.5 9.75 -9 11 C-9.66 10.67 -10.32 10.34 -11 10 C-5.555 5.05 -5.555 5.05 0 0 Z " fill="#C6C6C6" transform="translate(74,87)"/>
<path d="M0 0 C1.27208622 0.62244599 2.54261882 1.24806767 3.8125 1.875 C4.52019531 2.22304687 5.22789063 2.57109375 5.95703125 2.9296875 C8 4 8 4 11 6 C9 7 9 7 7.08984375 6.58203125 C6.37957031 6.32808594 5.66929688 6.07414062 4.9375 5.8125 C4.22464844 5.57144531 3.51179687 5.33039063 2.77734375 5.08203125 C1 4 1 4 0.25390625 1.88671875 C0.17011719 1.26410156 0.08632812 0.64148438 0 0 Z " fill="#C1C1C1" transform="translate(10,107)"/>
</svg>
